<svg width="17" height="20" viewBox="0 0 17 20" fill="none" xmlns="http://www.w3.org/2000/svg">
<path d="M14.8218 0.138672H3.17822C2.80009 0.138672 2.43745 0.288884 2.17007 0.556262C1.90269 0.823641 1.75248 1.18628 1.75248 1.56441V3.70303H0.445547C0.351014 3.70303 0.260354 3.74058 0.193509 3.80743C0.126664 3.87427 0.0891113 3.96493 0.0891113 4.05946C0.0891113 4.154 0.126664 4.24466 0.193509 4.3115C0.260354 4.37835 0.351014 4.4159 0.445547 4.4159H1.75248V6.55451H0.445547C0.351014 6.55451 0.260354 6.59207 0.193509 6.65891C0.126664 6.72576 0.0891113 6.81642 0.0891113 6.91095C0.0891113 7.00548 0.126664 7.09614 0.193509 7.16299C0.260354 7.22983 0.351014 7.26739 0.445547 7.26739H1.75248V9.406H0.445547C0.351014 9.406 0.260354 9.44355 0.193509 9.5104C0.126664 9.57724 0.0891113 9.6679 0.0891113 9.76243C0.0891113 9.85697 0.126664 9.94763 0.193509 10.0145C0.260354 10.0813 0.351014 10.1189 0.445547 10.1189H1.75248V12.4951H0.445547C0.351014 12.4951 0.260354 12.5327 0.193509 12.5995C0.126664 12.6663 0.0891113 12.757 0.0891113 12.8515C0.0891113 12.9461 0.126664 13.0367 0.193509 13.1036C0.260354 13.1704 0.351014 13.208 0.445547 13.208H1.75248V15.5842H0.445547C0.351014 15.5842 0.260354 15.6218 0.193509 15.6886C0.126664 15.7555 0.0891113 15.8461 0.0891113 15.9407C0.0891113 16.0352 0.126664 16.1258 0.193509 16.1927C0.260354 16.2595 0.351014 16.2971 0.445547 16.2971H1.75248V18.4357C1.75248 18.8138 1.90269 19.1765 2.17007 19.4439C2.43745 19.7112 2.80009 19.8614 3.17822 19.8614H14.8218C15.1999 19.8614 15.5626 19.7112 15.8299 19.4439C16.0973 19.1765 16.2475 18.8138 16.2475 18.4357V1.56441C16.2475 1.18628 16.0973 0.823641 15.8299 0.556262C15.5626 0.288884 15.1999 0.138672 14.8218 0.138672ZM2.46535 18.4357V16.2971H3.53466C3.62919 16.2971 3.71985 16.2595 3.78669 16.1927C3.85354 16.1258 3.89109 16.0352 3.89109 15.9407C3.89109 15.8461 3.85354 15.7555 3.78669 15.6886C3.71985 15.6218 3.62919 15.5842 3.53466 15.5842H2.46535V13.208H3.53466C3.62919 13.208 3.71985 13.1704 3.78669 13.1036C3.85354 13.0367 3.89109 12.9461 3.89109 12.8515C3.89109 12.757 3.85354 12.6663 3.78669 12.5995C3.71985 12.5327 3.62919 12.4951 3.53466 12.4951H2.46535V10.1189H3.53466C3.62919 10.1189 3.71985 10.0813 3.78669 10.0145C3.85354 9.94763 3.89109 9.85697 3.89109 9.76243C3.89109 9.6679 3.85354 9.57724 3.78669 9.5104C3.71985 9.44355 3.62919 9.406 3.53466 9.406H2.46535V7.26739H3.53466C3.62919 7.26739 3.71985 7.22983 3.78669 7.16299C3.85354 7.09614 3.89109 7.00548 3.89109 6.91095C3.89109 6.81642 3.85354 6.72576 3.78669 6.65891C3.71985 6.59207 3.62919 6.55451 3.53466 6.55451H2.46535V4.4159H3.53466C3.62919 4.4159 3.71985 4.37835 3.78669 4.3115C3.85354 4.24466 3.89109 4.154 3.89109 4.05946C3.89109 3.96493 3.85354 3.87427 3.78669 3.80743C3.71985 3.74058 3.62919 3.70303 3.53466 3.70303H2.46535V1.56441C2.46535 1.37535 2.54045 1.19403 2.67414 1.06034C2.80783 0.926649 2.98916 0.851543 3.17822 0.851543H12.2079V19.1486H3.17822C2.98916 19.1486 2.80783 19.0735 2.67414 18.9398C2.54045 18.8061 2.46535 18.6248 2.46535 18.4357ZM15.5347 18.4357C15.5347 18.6248 15.4596 18.8061 15.3259 18.9398C15.1922 19.0735 15.0109 19.1486 14.8218 19.1486H12.9208V0.851543H14.8218C15.0109 0.851543 15.1922 0.926649 15.3259 1.06034C15.4596 1.19403 15.5347 1.37535 15.5347 1.56441V18.4357Z" fill="#ADADAD"/>
</svg>
