<svg width="34" height="34" viewBox="0 0 34 34" fill="none" xmlns="http://www.w3.org/2000/svg">
<path d="M13.3876 29.0145C14.7344 29.7687 16.0608 30.1475 17.2964 30.1475C18.3308 30.1472 19.3015 29.8815 20.1654 29.3483L23.3498 27.3839C23.4647 27.313 23.5467 27.1999 23.5778 27.0684C23.609 26.9373 23.5863 26.7991 23.5155 26.6842L20.7553 22.2106C20.6845 22.0961 20.5709 22.0141 20.4398 21.9829C20.3077 21.9521 20.1701 21.9745 20.0556 22.0453L16.8472 24.0256C16.3539 24.3298 15.721 24.4271 15.1121 24.2933C14.5033 24.1591 13.9836 23.806 13.6861 23.3236L9.32537 16.2564C8.69485 15.2346 9.01265 13.8902 10.0338 13.2597C10.0338 13.2597 10.0341 13.2597 10.0341 13.2593L13.3642 11.2034C13.6031 11.056 13.677 10.743 13.5296 10.5041L10.769 6.03153C10.6216 5.79268 10.3082 5.7178 10.0697 5.86586L6.74232 7.91971C3.03378 10.2087 3.16388 16.2174 7.05945 22.5321C8.84528 25.4276 11.0929 27.7298 13.3876 29.0145ZM7.27662 8.78434L10.1714 6.99781L12.3983 10.6054L9.50053 12.3943C9.49985 12.3947 9.49951 12.395 9.49917 12.3954C8.00234 13.3206 7.53614 15.2915 8.46074 16.7897L12.8215 23.8565C13.2623 24.5718 14.0178 25.0925 14.8939 25.2856C15.7582 25.475 16.6652 25.3317 17.3811 24.8899L20.1569 23.1765L22.3836 26.7848L19.6314 28.4826C17.6217 29.7226 15.3967 28.9739 13.8843 28.1272C11.738 26.9251 9.62114 24.7486 7.92441 21.9982C4.34325 16.193 4.07695 10.7593 7.27662 8.78434Z" fill="white"/>
<path d="M16.7986 11.3676C18.4431 11.4648 19.8986 12.3098 20.7924 13.6864C21.6469 14.9983 21.8525 16.6059 21.3562 18.0973C21.2674 18.3636 21.4114 18.6516 21.6777 18.7397C21.7309 18.7577 21.7848 18.7658 21.8383 18.7658C22.0514 18.7658 22.2496 18.6313 22.3204 18.4182C22.9154 16.6313 22.6687 14.7042 21.6445 13.1321C20.5895 11.5065 18.7999 10.4674 16.8586 10.3525C16.5757 10.3407 16.3378 10.5497 16.3212 10.8299C16.3046 11.1104 16.5184 11.351 16.7986 11.3676Z" fill="white"/>
<path d="M17.5089 7.59532C20.1719 7.90126 22.5357 9.36254 23.9943 11.6037C25.4074 13.7765 25.8079 16.4517 25.0927 18.9437C25.0151 19.2137 25.1709 19.4949 25.4406 19.5722C25.4877 19.5857 25.5345 19.5921 25.5812 19.5921C25.8018 19.5921 26.0054 19.4468 26.0691 19.2242C26.8656 16.449 26.4198 13.4692 24.846 11.0495C23.2218 8.55346 20.59 6.92651 17.6247 6.58567C17.3513 6.55348 17.0942 6.75372 17.062 7.03256C17.0298 7.3114 17.2297 7.56313 17.5089 7.59532Z" fill="white"/>
<path d="M18.2042 4.27286C21.741 4.76447 24.8858 6.76343 26.8326 9.75747C28.7397 12.6871 29.3116 16.3056 28.4022 19.6849C28.3291 19.9559 28.49 20.2348 28.761 20.3076C28.8051 20.3195 28.8498 20.3252 28.8935 20.3252C29.1175 20.3252 29.3231 20.1761 29.3837 19.9491C30.3683 16.2914 29.749 12.3744 27.6846 9.20319C25.5773 5.96249 22.173 3.79853 18.3448 3.26626C18.068 3.22933 17.8099 3.42144 17.7716 3.6996C17.7326 3.97742 17.9264 4.23424 18.2042 4.27286Z" fill="white"/>
<rect x="0.5" y="0.5" width="33" height="33" stroke="black"/>
</svg>
