<svg width="30" height="30" viewBox="0 0 30 30" fill="none" xmlns="http://www.w3.org/2000/svg">
<rect x="0.5" y="0.5" width="29" height="29" rx="7.5" stroke="#ADADAD"/>
<path d="M22.9269 8.36355C22.8696 8.2939 22.7856 8.25383 22.6972 8.25383H8.41L7.82744 6.22469C7.78888 6.09126 7.671 6 7.53716 6H5.30279C5.13545 6 5 6.14077 5 6.31469C5 6.48861 5.13545 6.62939 5.30279 6.62939H7.31149L10.9922 19.4487C10.9926 19.4502 10.9938 19.4514 10.9942 19.4529L11.4514 21.0692C11.1628 21.3673 10.9839 21.7799 10.9839 22.235C10.9839 23.1434 11.6947 23.8825 12.5681 23.8825C13.4135 23.8825 14.104 23.1885 14.1466 22.3193H18.115C18.1148 22.3309 18.1134 22.3422 18.1134 22.3539C18.1134 23.2615 18.8237 24 19.6967 24C20.5698 24 21.2803 23.2615 21.2803 22.3539C21.2803 21.4464 20.5698 20.7079 19.6967 20.7079C19.051 20.7079 18.4953 21.1124 18.2492 21.6899H14.0602C13.9827 21.4602 13.8578 21.249 13.6872 21.0717C13.3882 20.761 12.991 20.5896 12.5687 20.5896C12.5685 20.5896 12.5683 20.5896 12.5683 20.5896C12.3606 20.5896 12.1626 20.6324 11.9807 20.7083L11.688 19.6734H21.1094C21.2589 19.6734 21.3861 19.5599 21.4085 19.4063L22.9965 8.61593C23.0099 8.5253 22.9844 8.4332 22.9269 8.36355ZM19.6967 21.3375C20.2359 21.3375 20.6747 21.7936 20.6747 22.3542C20.6747 22.9147 20.2359 23.3708 19.6967 23.3708C19.1576 23.3708 18.7189 22.9147 18.7189 22.3542C18.7189 21.7936 19.1576 21.3375 19.6967 21.3375ZM12.5683 21.2192H12.5685C12.8291 21.2192 13.0742 21.3249 13.2587 21.5169C13.4434 21.7088 13.5449 21.9641 13.5449 22.2354C13.5449 22.7968 13.1067 23.2535 12.5679 23.2535C12.0283 23.2535 11.5893 22.7968 11.5893 22.2354C11.5895 21.675 12.0285 21.2192 12.5683 21.2192ZM20.8492 19.0442H11.5097L10.9373 17.0201C10.93 16.9945 10.9191 16.9712 10.9066 16.9492L8.59067 8.88321H22.3445L20.8492 19.0442Z" fill="#ADADAD" stroke="#ADADAD" stroke-width="0.5"/>
</svg>
