<svg width="18" height="20" viewBox="0 0 18 20" fill="none" xmlns="http://www.w3.org/2000/svg">
<path d="M17.4212 15.1345V15.1203C17.4241 15.0942 17.4241 15.0679 17.4212 15.0419V3.16068C17.4219 3.06816 17.3866 2.97899 17.3228 2.91203C17.2589 2.84507 17.1715 2.80557 17.0791 2.80187H14.7028C14.6623 2.80214 14.6221 2.80938 14.584 2.82326C14.5459 2.80938 14.5057 2.80214 14.4652 2.80187H14.3464V1.25731C14.3464 1.16278 14.3088 1.07212 14.242 1.00528C14.1751 0.938432 14.0845 0.900879 13.99 0.900879C13.8954 0.900879 13.8048 0.938432 13.7379 1.00528C13.6711 1.07212 13.6335 1.16278 13.6335 1.25731V2.80187H9.35629V1.25731C9.35629 1.16278 9.31874 1.07212 9.25189 1.00528C9.18505 0.938432 9.09439 0.900879 8.99985 0.900879C8.90532 0.900879 8.81466 0.938432 8.74781 1.00528C8.68097 1.07212 8.64342 1.16278 8.64342 1.25731V2.80187H4.36619V1.25731C4.36619 1.16278 4.32864 1.07212 4.26179 1.00528C4.19495 0.938432 4.10429 0.900879 4.00975 0.900879C3.91522 0.900879 3.82456 0.938432 3.75772 1.00528C3.69087 1.07212 3.65332 1.16278 3.65332 1.25731V2.80187H0.920645C0.826112 2.80187 0.735451 2.83942 0.668607 2.90627C0.601762 2.97311 0.564209 3.06377 0.564209 3.1583V19.0791C0.564209 19.1736 0.601762 19.2643 0.668607 19.3311C0.735451 19.398 0.826112 19.4355 0.920645 19.4355H12.5642C12.6047 19.4353 12.6449 19.428 12.683 19.4141H12.6949C12.7312 19.4 12.7649 19.3799 12.7947 19.3547L17.3096 15.3151C17.3324 15.2941 17.3524 15.2701 17.369 15.2438V15.2272C17.391 15.1992 17.4086 15.1679 17.4212 15.1345ZM3.65332 3.51474V4.34642C3.65332 4.44096 3.69087 4.53162 3.75772 4.59846C3.82456 4.66531 3.91522 4.70286 4.00975 4.70286C4.10429 4.70286 4.19495 4.66531 4.26179 4.59846C4.32864 4.53162 4.36619 4.44096 4.36619 4.34642V3.51474H8.64342V4.34642C8.64342 4.44096 8.68097 4.53162 8.74781 4.59846C8.81466 4.66531 8.90532 4.70286 8.99985 4.70286C9.09439 4.70286 9.18505 4.66531 9.25189 4.59846C9.31874 4.53162 9.35629 4.44096 9.35629 4.34642V3.51474H13.6335V4.34642C13.6335 4.44096 13.6711 4.53162 13.7379 4.59846C13.8048 4.66531 13.8954 4.70286 13.99 4.70286C14.0845 4.70286 14.1751 4.66531 14.242 4.59846C14.3088 4.53162 14.3464 4.44096 14.3464 4.34642V3.51474H14.4652C14.5057 3.51447 14.5459 3.50723 14.584 3.49335C14.6221 3.50723 14.6623 3.51447 14.7028 3.51474H16.7226V7.0791H1.27708V3.51474H3.65332ZM1.27708 7.79197H16.7226V14.6831H12.5642C12.4697 14.6831 12.379 14.7206 12.3122 14.7875C12.2453 14.8543 12.2078 14.945 12.2078 15.0395V18.7227H1.27708V7.79197ZM12.9206 18.2831V15.3959H16.1452L12.9206 18.2831Z" fill="#ADADAD"/>
<path d="M4.96046 9.93066H2.58422C2.48969 9.93066 2.39903 9.96822 2.33218 10.0351C2.26534 10.1019 2.22778 10.1926 2.22778 10.2871C2.22778 10.3816 2.26534 10.4723 2.33218 10.5391C2.39903 10.606 2.48969 10.6435 2.58422 10.6435H4.96046C5.05499 10.6435 5.14565 10.606 5.21249 10.5391C5.27934 10.4723 5.31689 10.3816 5.31689 10.2871C5.31689 10.1926 5.27934 10.1019 5.21249 10.0351C5.14565 9.96822 5.05499 9.93066 4.96046 9.93066Z" fill="#ADADAD"/>
<path d="M7.57421 10.6435H10.1881C10.2826 10.6435 10.3733 10.606 10.4401 10.5391C10.507 10.4723 10.5445 10.3816 10.5445 10.2871C10.5445 10.1926 10.507 10.1019 10.4401 10.0351C10.3733 9.96822 10.2826 9.93066 10.1881 9.93066H7.57421C7.47968 9.93066 7.38902 9.96822 7.32217 10.0351C7.25533 10.1019 7.21777 10.1926 7.21777 10.2871C7.21777 10.3816 7.25533 10.4723 7.32217 10.5391C7.38902 10.606 7.47968 10.6435 7.57421 10.6435Z" fill="#ADADAD"/>
<path d="M12.802 10.6435H15.4159C15.5104 10.6435 15.601 10.606 15.6679 10.5391C15.7347 10.4723 15.7723 10.3816 15.7723 10.2871C15.7723 10.1926 15.7347 10.1019 15.6679 10.0351C15.601 9.96822 15.5104 9.93066 15.4159 9.93066H12.802C12.7075 9.93066 12.6168 9.96822 12.55 10.0351C12.4831 10.1019 12.4456 10.1926 12.4456 10.2871C12.4456 10.3816 12.4831 10.4723 12.55 10.5391C12.6168 10.606 12.7075 10.6435 12.802 10.6435Z" fill="#ADADAD"/>
<path d="M4.96046 12.5444H2.58422C2.48969 12.5444 2.39903 12.582 2.33218 12.6488C2.26534 12.7157 2.22778 12.8063 2.22778 12.9009C2.22778 12.9954 2.26534 13.0861 2.33218 13.1529C2.39903 13.2198 2.48969 13.2573 2.58422 13.2573H4.96046C5.05499 13.2573 5.14565 13.2198 5.21249 13.1529C5.27934 13.0861 5.31689 12.9954 5.31689 12.9009C5.31689 12.8063 5.27934 12.7157 5.21249 12.6488C5.14565 12.582 5.05499 12.5444 4.96046 12.5444Z" fill="#ADADAD"/>
<path d="M10.1881 12.5444H7.57421C7.47968 12.5444 7.38902 12.582 7.32217 12.6488C7.25533 12.7157 7.21777 12.8063 7.21777 12.9009C7.21777 12.9954 7.25533 13.0861 7.32217 13.1529C7.38902 13.2198 7.47968 13.2573 7.57421 13.2573H10.1881C10.2826 13.2573 10.3733 13.2198 10.4401 13.1529C10.507 13.0861 10.5445 12.9954 10.5445 12.9009C10.5445 12.8063 10.507 12.7157 10.4401 12.6488C10.3733 12.582 10.2826 12.5444 10.1881 12.5444Z" fill="#ADADAD"/>
<path d="M12.802 13.2573H15.4159C15.5104 13.2573 15.601 13.2198 15.6679 13.1529C15.7347 13.0861 15.7723 12.9954 15.7723 12.9009C15.7723 12.8063 15.7347 12.7157 15.6679 12.6488C15.601 12.582 15.5104 12.5444 15.4159 12.5444H12.802C12.7075 12.5444 12.6168 12.582 12.55 12.6488C12.4831 12.7157 12.4456 12.8063 12.4456 12.9009C12.4456 12.9954 12.4831 13.0861 12.55 13.1529C12.6168 13.2198 12.7075 13.2573 12.802 13.2573Z" fill="#ADADAD"/>
<path d="M4.96046 15.1584H2.58422C2.48969 15.1584 2.39903 15.196 2.33218 15.2628C2.26534 15.3297 2.22778 15.4204 2.22778 15.5149C2.22778 15.6094 2.26534 15.7001 2.33218 15.7669C2.39903 15.8338 2.48969 15.8713 2.58422 15.8713H4.96046C5.05499 15.8713 5.14565 15.8338 5.21249 15.7669C5.27934 15.7001 5.31689 15.6094 5.31689 15.5149C5.31689 15.4204 5.27934 15.3297 5.21249 15.2628C5.14565 15.196 5.05499 15.1584 4.96046 15.1584Z" fill="#ADADAD"/>
<path d="M9.95045 15.1584H7.57421C7.47968 15.1584 7.38902 15.196 7.32217 15.2628C7.25533 15.3297 7.21777 15.4204 7.21777 15.5149C7.21777 15.6094 7.25533 15.7001 7.32217 15.7669C7.38902 15.8338 7.47968 15.8713 7.57421 15.8713H9.95045C10.045 15.8713 10.1356 15.8338 10.2025 15.7669C10.2693 15.7001 10.3069 15.6094 10.3069 15.5149C10.3069 15.4204 10.2693 15.3297 10.2025 15.2628C10.1356 15.196 10.045 15.1584 9.95045 15.1584Z" fill="#ADADAD"/>
</svg>
