<svg width="32" height="32" viewBox="0 0 32 32" fill="none" xmlns="http://www.w3.org/2000/svg">
<g filter="url(#filter0_d)">
<path d="M24.4212 16.1345V16.1203C24.4241 16.0942 24.4241 16.0679 24.4212 16.0419V4.16068C24.4219 4.06816 24.3866 3.97899 24.3228 3.91203C24.2589 3.84507 24.1715 3.80557 24.0791 3.80187H21.7028C21.6623 3.80214 21.6221 3.80938 21.584 3.82326C21.5459 3.80938 21.5057 3.80214 21.4652 3.80187H21.3464V2.25731C21.3464 2.16278 21.3088 2.07212 21.242 2.00528C21.1751 1.93843 21.0845 1.90088 20.99 1.90088C20.8954 1.90088 20.8048 1.93843 20.7379 2.00528C20.6711 2.07212 20.6335 2.16278 20.6335 2.25731V3.80187H16.3563V2.25731C16.3563 2.16278 16.3187 2.07212 16.2519 2.00528C16.185 1.93843 16.0944 1.90088 15.9999 1.90088C15.9053 1.90088 15.8147 1.93843 15.7478 2.00528C15.681 2.07212 15.6434 2.16278 15.6434 2.25731V3.80187H11.3662V2.25731C11.3662 2.16278 11.3286 2.07212 11.2618 2.00528C11.1949 1.93843 11.1043 1.90088 11.0098 1.90088C10.9152 1.90088 10.8246 1.93843 10.7577 2.00528C10.6909 2.07212 10.6533 2.16278 10.6533 2.25731V3.80187H7.92064C7.82611 3.80187 7.73545 3.83942 7.66861 3.90627C7.60176 3.97311 7.56421 4.06377 7.56421 4.1583V20.0791C7.56421 20.1736 7.60176 20.2643 7.66861 20.3311C7.73545 20.398 7.82611 20.4355 7.92064 20.4355H19.5642C19.6047 20.4353 19.6449 20.428 19.683 20.4141H19.6949C19.7312 20.4 19.7649 20.3799 19.7947 20.3547L24.3096 16.3151C24.3324 16.2941 24.3524 16.2701 24.369 16.2438V16.2272C24.391 16.1992 24.4086 16.1679 24.4212 16.1345ZM10.6533 4.51474V5.34642C10.6533 5.44096 10.6909 5.53162 10.7577 5.59846C10.8246 5.66531 10.9152 5.70286 11.0098 5.70286C11.1043 5.70286 11.1949 5.66531 11.2618 5.59846C11.3286 5.53162 11.3662 5.44096 11.3662 5.34642V4.51474H15.6434V5.34642C15.6434 5.44096 15.681 5.53162 15.7478 5.59846C15.8147 5.66531 15.9053 5.70286 15.9999 5.70286C16.0944 5.70286 16.185 5.66531 16.2519 5.59846C16.3187 5.53162 16.3563 5.44096 16.3563 5.34642V4.51474H20.6335V5.34642C20.6335 5.44096 20.6711 5.53162 20.7379 5.59846C20.8048 5.66531 20.8954 5.70286 20.99 5.70286C21.0845 5.70286 21.1751 5.66531 21.242 5.59846C21.3088 5.53162 21.3464 5.44096 21.3464 5.34642V4.51474H21.4652C21.5057 4.51447 21.5459 4.50723 21.584 4.49335C21.6221 4.50723 21.6623 4.51447 21.7028 4.51474H23.7226V8.0791H8.27708V4.51474H10.6533ZM8.27708 8.79197H23.7226V15.6831H19.5642C19.4697 15.6831 19.379 15.7206 19.3122 15.7875C19.2453 15.8543 19.2078 15.945 19.2078 16.0395V19.7227H8.27708V8.79197ZM19.9206 19.2831V16.3959H23.1452L19.9206 19.2831Z" fill="#ADADAD"/>
<path d="M11.9605 10.9307H9.58422C9.48969 10.9307 9.39903 10.9682 9.33218 11.0351C9.26534 11.1019 9.22778 11.1926 9.22778 11.2871C9.22778 11.3816 9.26534 11.4723 9.33218 11.5391C9.39903 11.606 9.48969 11.6435 9.58422 11.6435H11.9605C12.055 11.6435 12.1456 11.606 12.2125 11.5391C12.2793 11.4723 12.3169 11.3816 12.3169 11.2871C12.3169 11.1926 12.2793 11.1019 12.2125 11.0351C12.1456 10.9682 12.055 10.9307 11.9605 10.9307Z" fill="#ADADAD"/>
<path d="M14.5742 11.6435H17.1881C17.2826 11.6435 17.3733 11.606 17.4401 11.5391C17.507 11.4723 17.5445 11.3816 17.5445 11.2871C17.5445 11.1926 17.507 11.1019 17.4401 11.0351C17.3733 10.9682 17.2826 10.9307 17.1881 10.9307H14.5742C14.4797 10.9307 14.389 10.9682 14.3222 11.0351C14.2553 11.1019 14.2178 11.1926 14.2178 11.2871C14.2178 11.3816 14.2553 11.4723 14.3222 11.5391C14.389 11.606 14.4797 11.6435 14.5742 11.6435Z" fill="#ADADAD"/>
<path d="M19.802 11.6435H22.4159C22.5104 11.6435 22.601 11.606 22.6679 11.5391C22.7347 11.4723 22.7723 11.3816 22.7723 11.2871C22.7723 11.1926 22.7347 11.1019 22.6679 11.0351C22.601 10.9682 22.5104 10.9307 22.4159 10.9307H19.802C19.7075 10.9307 19.6168 10.9682 19.55 11.0351C19.4831 11.1019 19.4456 11.1926 19.4456 11.2871C19.4456 11.3816 19.4831 11.4723 19.55 11.5391C19.6168 11.606 19.7075 11.6435 19.802 11.6435Z" fill="#ADADAD"/>
<path d="M11.9605 13.5444H9.58422C9.48969 13.5444 9.39903 13.582 9.33218 13.6488C9.26534 13.7157 9.22778 13.8063 9.22778 13.9009C9.22778 13.9954 9.26534 14.0861 9.33218 14.1529C9.39903 14.2198 9.48969 14.2573 9.58422 14.2573H11.9605C12.055 14.2573 12.1456 14.2198 12.2125 14.1529C12.2793 14.0861 12.3169 13.9954 12.3169 13.9009C12.3169 13.8063 12.2793 13.7157 12.2125 13.6488C12.1456 13.582 12.055 13.5444 11.9605 13.5444Z" fill="#ADADAD"/>
<path d="M17.1881 13.5444H14.5742C14.4797 13.5444 14.389 13.582 14.3222 13.6488C14.2553 13.7157 14.2178 13.8063 14.2178 13.9009C14.2178 13.9954 14.2553 14.0861 14.3222 14.1529C14.389 14.2198 14.4797 14.2573 14.5742 14.2573H17.1881C17.2826 14.2573 17.3733 14.2198 17.4401 14.1529C17.507 14.0861 17.5445 13.9954 17.5445 13.9009C17.5445 13.8063 17.507 13.7157 17.4401 13.6488C17.3733 13.582 17.2826 13.5444 17.1881 13.5444Z" fill="#ADADAD"/>
<path d="M19.802 14.2573H22.4159C22.5104 14.2573 22.601 14.2198 22.6679 14.1529C22.7347 14.0861 22.7723 13.9954 22.7723 13.9009C22.7723 13.8063 22.7347 13.7157 22.6679 13.6488C22.601 13.582 22.5104 13.5444 22.4159 13.5444H19.802C19.7075 13.5444 19.6168 13.582 19.55 13.6488C19.4831 13.7157 19.4456 13.8063 19.4456 13.9009C19.4456 13.9954 19.4831 14.0861 19.55 14.1529C19.6168 14.2198 19.7075 14.2573 19.802 14.2573Z" fill="#ADADAD"/>
<path d="M11.9605 16.1584H9.58422C9.48969 16.1584 9.39903 16.196 9.33218 16.2628C9.26534 16.3297 9.22778 16.4204 9.22778 16.5149C9.22778 16.6094 9.26534 16.7001 9.33218 16.7669C9.39903 16.8338 9.48969 16.8713 9.58422 16.8713H11.9605C12.055 16.8713 12.1456 16.8338 12.2125 16.7669C12.2793 16.7001 12.3169 16.6094 12.3169 16.5149C12.3169 16.4204 12.2793 16.3297 12.2125 16.2628C12.1456 16.196 12.055 16.1584 11.9605 16.1584Z" fill="#ADADAD"/>
<path d="M16.9504 16.1584H14.5742C14.4797 16.1584 14.389 16.196 14.3222 16.2628C14.2553 16.3297 14.2178 16.4204 14.2178 16.5149C14.2178 16.6094 14.2553 16.7001 14.3222 16.7669C14.389 16.8338 14.4797 16.8713 14.5742 16.8713H16.9504C17.045 16.8713 17.1356 16.8338 17.2025 16.7669C17.2693 16.7001 17.3069 16.6094 17.3069 16.5149C17.3069 16.4204 17.2693 16.3297 17.2025 16.2628C17.1356 16.196 17.045 16.1584 16.9504 16.1584Z" fill="#ADADAD"/>
</g>
<defs>
<filter id="filter0_d" x="0" y="0" width="32" height="32" filterUnits="userSpaceOnUse" color-interpolation-filters="sRGB">
<feFlood flood-opacity="0" result="BackgroundImageFix"/>
<feColorMatrix in="SourceAlpha" type="matrix" values="0 0 0 0 0 0 0 0 0 0 0 0 0 0 0 0 0 0 127 0"/>
<feOffset dy="4"/>
<feGaussianBlur stdDeviation="2"/>
<feColorMatrix type="matrix" values="0 0 0 0 0 0 0 0 0 0 0 0 0 0 0 0 0 0 0.25 0"/>
<feBlend mode="normal" in2="BackgroundImageFix" result="effect1_dropShadow"/>
<feBlend mode="normal" in="SourceGraphic" in2="effect1_dropShadow" result="shape"/>
</filter>
</defs>
</svg>
