<svg width="34" height="34" viewBox="0 0 34 34" fill="none" xmlns="http://www.w3.org/2000/svg">
<path d="M31.5379 25.8253C31.5539 25.7762 31.5647 25.7243 31.5647 25.6698V7.66998C31.5647 7.6151 31.5539 7.56292 31.5376 7.51345C31.5352 7.50668 31.5339 7.4999 31.5312 7.49312C31.5095 7.43519 31.4776 7.38301 31.4377 7.33727C31.4349 7.33422 31.4346 7.3305 31.4319 7.32745C31.4302 7.32575 31.4282 7.32508 31.4265 7.32338C31.3838 7.27798 31.3333 7.24139 31.2767 7.21395C31.2723 7.21191 31.2689 7.2092 31.2645 7.20717C31.211 7.18312 31.1527 7.16956 31.0914 7.1655C31.0853 7.16516 31.0795 7.1638 31.0734 7.1638C31.0677 7.16346 31.0626 7.16211 31.0568 7.16211H2.86694C2.86118 7.16211 2.85576 7.16346 2.85 7.1638C2.84458 7.16414 2.83916 7.16516 2.83374 7.1655C2.77174 7.16956 2.71245 7.18345 2.65824 7.20785C2.65485 7.2092 2.65214 7.21158 2.64875 7.21293C2.59115 7.24037 2.54 7.27764 2.49697 7.32372C2.49527 7.32541 2.49324 7.32575 2.49155 7.32745C2.48884 7.33016 2.4885 7.33388 2.48579 7.33693C2.44581 7.38267 2.41362 7.43519 2.39194 7.49312C2.38923 7.4999 2.38787 7.50668 2.3855 7.51379C2.36924 7.56326 2.3584 7.61543 2.3584 7.67032V25.6705C2.3584 25.726 2.36958 25.7789 2.38618 25.829C2.38855 25.8358 2.38991 25.8423 2.39228 25.849C2.4143 25.9073 2.44683 25.9598 2.48714 26.0056C2.48951 26.0083 2.49019 26.0117 2.49256 26.0144C2.4946 26.0167 2.49731 26.0181 2.49968 26.0205C2.51628 26.0377 2.53457 26.053 2.55355 26.0679C2.56202 26.0743 2.56947 26.0821 2.57828 26.0882C2.60064 26.1038 2.6247 26.1164 2.64943 26.1279C2.65553 26.1306 2.66095 26.135 2.66705 26.1374C2.72837 26.1634 2.79579 26.1784 2.8666 26.1784H31.0562C31.127 26.1784 31.1944 26.1638 31.2557 26.1374C31.2652 26.1333 31.274 26.1272 31.2832 26.1224C31.3042 26.1119 31.3252 26.1011 31.3445 26.0879C31.3547 26.0808 31.3638 26.0716 31.3736 26.0638C31.3909 26.0499 31.4078 26.0361 31.4228 26.0201C31.4255 26.0174 31.4285 26.0154 31.4312 26.0127C31.4339 26.0096 31.4346 26.0056 31.4373 26.0025C31.477 25.9571 31.5088 25.9049 31.5305 25.8473C31.5339 25.8399 31.5356 25.8328 31.5379 25.8253ZM3.37514 8.8226L11.9288 16.6358L3.37514 24.5114V8.8226ZM20.9067 16.253C20.8715 16.276 20.8342 16.2953 20.8047 16.3279C20.7936 16.3401 20.7898 16.356 20.78 16.3689L16.9617 19.8565L4.17674 8.17819H29.7467L20.9067 16.253ZM12.6823 17.324L16.6189 20.9197C16.7161 21.0085 16.8387 21.0529 16.9617 21.0529C17.0847 21.0529 17.2074 21.0085 17.3042 20.9197L21.192 17.3687L29.7443 25.1619H4.16929L12.6823 17.324ZM21.9458 16.6802L30.5483 8.8226V24.5196L21.9458 16.6802Z" fill="white"/>
</svg>
