<svg width="30" height="30" viewBox="0 0 30 30" fill="none" xmlns="http://www.w3.org/2000/svg">
<path d="M15 0C6.71581 0 0 6.71581 0 15C0 23.2842 6.71581 30 15 30C23.2842 30 30 23.2842 30 15C30 6.71581 23.2842 0 15 0ZM19.407 8.59781C18.694 8.59781 17.9765 8.59781 17.2638 8.59781C16.8126 8.5686 16.3472 8.91294 16.2648 9.36405C16.2551 10.1449 16.2599 10.9254 16.2599 11.7063C17.3072 11.7111 18.3549 11.7063 19.4025 11.7111C19.3249 12.8409 19.1844 13.9661 19.0195 15.0815C18.0933 15.0913 17.167 15.0815 16.2408 15.0864C16.231 18.4178 16.2456 21.7444 16.2359 25.0761C14.8586 25.081 13.4864 25.0713 12.109 25.081C12.0847 21.7496 12.109 18.4181 12.0944 15.0864C11.4252 15.0815 10.7511 15.0913 10.0819 15.0815C10.0868 13.9612 10.0819 12.8412 10.0819 11.7257C10.7511 11.716 11.4252 11.7257 12.0944 11.7209C12.1139 10.6346 12.075 9.54352 12.1139 8.45727C12.1866 7.58913 12.5115 6.72128 13.1566 6.12478C13.9375 5.38287 15.0429 5.1307 16.0905 5.1015C17.1962 5.09176 18.3019 5.09663 19.4073 5.09663C19.4119 6.26531 19.4119 7.42912 19.407 8.59781Z" fill="#00CC99"/>
</svg>
