<svg width="19" height="31" viewBox="0 0 19 31" fill="none" xmlns="http://www.w3.org/2000/svg">
<path d="M11.7284 22.7137L16.8081 14.5458C16.8247 14.5194 16.8386 14.4916 16.8495 14.4628C17.7266 13.0323 18.1898 11.3983 18.1898 9.72997C18.1898 4.72511 14.118 0.65332 9.11312 0.65332C4.10826 0.65332 0.0361313 4.72511 0.0361313 9.72997C0.0361313 11.3986 0.499959 13.0333 1.37781 14.4648C1.38797 14.4899 1.39983 14.5143 1.41406 14.538L6.31152 22.7341C2.50976 23.2714 0.00970459 24.8347 0.00970459 26.731C0.00970459 29.0806 4.00255 30.9207 9.09957 30.9207C14.1966 30.9207 18.1894 29.0803 18.1894 26.731C18.1898 24.8259 15.5732 23.2277 11.7284 22.7137ZM2.29022 14.0071C1.48047 12.7183 1.05255 11.2394 1.05255 9.72997C1.05255 5.28549 4.66831 1.66974 9.11312 1.66974C13.5576 1.66974 17.1734 5.28549 17.1734 9.72997C17.1734 11.24 16.7454 12.7189 15.936 14.0071C15.9191 14.0342 15.9052 14.0623 15.894 14.0914L10.5273 22.7198C10.4467 22.8435 10.4307 22.8716 10.3322 23.0336L8.97692 25.2128L2.33562 14.0986C2.32376 14.067 2.30851 14.0362 2.29022 14.0071ZM9.09991 29.9043C4.34204 29.9043 1.02647 28.2316 1.02647 26.731C1.02647 25.369 3.52348 24.0856 6.88207 23.6882L8.53207 26.4498C8.62321 26.6019 8.78651 26.6958 8.96371 26.6971C8.96506 26.6971 8.96676 26.6971 8.96811 26.6971C9.14361 26.6971 9.30692 26.6063 9.39975 26.4572L11.1344 23.6682C14.5466 24.0378 17.173 25.3537 17.173 26.731C17.1734 28.2319 13.8578 29.9043 9.09991 29.9043Z" fill="white"/>
<path d="M12.3997 9.73001C12.3997 7.91028 10.9191 6.42969 9.09935 6.42969C7.27961 6.42969 5.79903 7.91028 5.79903 9.73001C5.79903 11.5497 7.27961 13.0303 9.09935 13.0303C10.9191 13.0303 12.3997 11.5497 12.3997 9.73001ZM6.81545 9.73001C6.81545 8.47066 7.84 7.44611 9.09935 7.44611C10.3587 7.44611 11.3832 8.47066 11.3832 9.73001C11.3832 10.9894 10.359 12.0139 9.09935 12.0139C7.83966 12.0139 6.81545 10.9894 6.81545 9.73001Z" fill="white"/>
</svg>
