<svg width="30" height="30" viewBox="0 0 30 30" fill="none" xmlns="http://www.w3.org/2000/svg">
<path d="M18.9085 7.44336H11.017C9.04225 7.44336 7.43555 9.05007 7.43555 11.0248V18.9887C7.43555 20.9635 9.04225 22.5702 11.017 22.5702H18.9085C20.8833 22.5702 22.49 20.9635 22.49 18.9887V11.0248C22.49 9.05007 20.8833 7.44336 18.9085 7.44336ZM14.9778 19.7753C12.301 19.7753 10.1233 17.6208 10.1233 14.9726C10.1233 12.3243 12.3013 10.1698 14.9778 10.1698C17.6544 10.1698 19.8323 12.3243 19.8323 14.9726C19.8323 17.6208 17.6547 19.7753 14.9778 19.7753ZM19.9187 11.1155C19.2878 11.1155 18.7765 10.6042 18.7765 9.97327C18.7765 9.34239 19.2878 8.83105 19.9187 8.83105C20.5496 8.83105 21.0609 9.34239 21.0609 9.97327C21.0609 10.6042 20.5496 11.1155 19.9187 11.1155Z" fill="#00CC99"/>
<path d="M15 0C6.71581 0 0 6.71581 0 15C0 23.2842 6.71581 30 15 30C23.2842 30 30 23.2842 30 15C30 6.71581 23.2842 0 15 0ZM24.2615 18.9888C24.2615 21.9406 21.86 24.3418 18.9085 24.3418H11.017C8.06518 24.3418 5.66394 21.9403 5.66394 18.9888V11.0249C5.66394 8.07309 8.06548 5.67184 11.017 5.67184H18.9085C21.8603 5.67184 24.2615 8.07339 24.2615 11.0249V18.9888Z" fill="#00CC99"/>
<path d="M14.9774 11.938C13.2755 11.938 11.8911 13.2992 11.8911 14.9725C11.8911 16.6459 13.2755 18.0071 14.9774 18.0071C16.6793 18.0071 18.0636 16.6459 18.0636 14.9725C18.0636 13.2992 16.6793 11.938 14.9774 11.938Z" fill="#00CC99"/>
</svg>
