<svg width="34" height="34" viewBox="0 0 34 34" fill="none" xmlns="http://www.w3.org/2000/svg">
<path d="M19.7284 23.714L24.8082 15.546C24.8248 15.5196 24.8387 15.4918 24.8495 15.463C25.7267 14.0326 26.1898 12.3985 26.1898 10.7302C26.1898 5.72535 22.118 1.65356 17.1132 1.65356C12.1083 1.65356 8.03619 5.72535 8.03619 10.7302C8.03619 12.3988 8.50002 14.0336 9.37787 15.465C9.38803 15.4901 9.39989 15.5145 9.41412 15.5382L14.3116 23.7343C10.5098 24.2717 8.00977 25.8349 8.00977 27.7312C8.00977 30.0809 12.0026 31.9209 17.0996 31.9209C22.1966 31.9209 26.1895 30.0805 26.1895 27.7312C26.1898 25.8261 23.5732 24.228 19.7284 23.714ZM10.2903 15.0073C9.48053 13.7185 9.05261 12.2396 9.05261 10.7302C9.05261 6.28574 12.6684 2.66999 17.1132 2.66999C21.5577 2.66999 25.1734 6.28574 25.1734 10.7302C25.1734 12.2403 24.7455 13.7192 23.9361 15.0073C23.9191 15.0344 23.9053 15.0625 23.8941 15.0917L18.5274 23.7201C18.4467 23.8438 18.4308 23.8719 18.3322 24.0338L16.977 26.213L10.3357 15.0988C10.3238 15.0673 10.3086 15.0365 10.2903 15.0073ZM17.1 30.9045C12.3421 30.9045 9.02653 29.2318 9.02653 27.7312C9.02653 26.3692 11.5235 25.0858 14.8821 24.6884L16.5321 27.45C16.6233 27.6021 16.7866 27.696 16.9638 27.6973C16.9651 27.6973 16.9668 27.6973 16.9682 27.6973C17.1437 27.6973 17.307 27.6065 17.3998 27.4575L19.1345 24.6684C22.5466 25.038 25.1731 26.354 25.1731 27.7312C25.1734 29.2321 21.8578 30.9045 17.1 30.9045Z" fill="white"/>
<path d="M20.4 10.7303C20.4 8.91052 18.9194 7.42993 17.0996 7.42993C15.2799 7.42993 13.7993 8.91052 13.7993 10.7303C13.7993 12.55 15.2799 14.0306 17.0996 14.0306C18.9194 14.0306 20.4 12.55 20.4 10.7303ZM14.8157 10.7303C14.8157 9.47091 15.8403 8.44635 17.0996 8.44635C18.359 8.44635 19.3835 9.47091 19.3835 10.7303C19.3835 11.9896 18.3593 13.0142 17.0996 13.0142C15.84 13.0142 14.8157 11.9896 14.8157 10.7303Z" fill="white"/>
</svg>
