<svg width="101" height="24" viewBox="0 0 101 24" fill="none" xmlns="http://www.w3.org/2000/svg">
<path d="M16.7188 5.55961C18.7178 0.693221 10.1592 -3.53276 8.29666 4.49714C5.55182 2.15532 -0.0894074 6.88822 4.12513 11.4679C-0.979573 11.1712 -1.82504 19.9979 4.31711 20.0808C4.31711 20.0808 3.22645 20.0761 4.31711 20.0808L16.7325 20.0789L16.7325 18.2101L5.2342 18.1935L5.24957 15.4296L16.7327 15.4117L16.7488 13.3315L7.74535 13.331L7.73504 10.4098L16.7258 10.4163L16.738 8.42521L10.2359 8.40318L10.2576 5.53655L16.7188 5.55961Z" fill="#00CC99"/>
<path d="M77.4962 7.75779C77.4962 6.8038 77.5546 5.77031 76.4839 5.41257C75.4521 5.0747 74.3424 4.87595 73.4274 5.79019C70.001 4.69708 67.6259 5.33307 65.8738 7.75779C64.2774 9.98376 64.219 13.2233 65.718 15.5089C67.4312 18.1125 69.5338 18.6889 73.5247 17.6157C73.6999 19.3448 72.9212 20.2988 71.2859 20.3584C70.2152 20.3981 69.1444 20.3385 68.0737 20.3981C67.1392 20.4578 66.633 21.0937 66.672 21.9881C66.6914 22.8825 67.256 23.4588 68.171 23.4588C69.3975 23.4787 70.6434 23.5185 71.8699 23.439C75.3547 23.2005 77.4183 21.0341 77.4962 17.4765C77.5351 14.2568 77.4767 10.9974 77.4962 7.75779ZM73.6026 10.103C73.5442 10.6595 73.5831 11.2359 73.5831 11.7924C73.5831 12.4284 73.5831 13.0445 73.5831 13.6805C73.6026 14.8133 73.2716 15.7276 72.1035 16.0654C70.916 16.4033 69.8647 16.1648 69.086 15.0916C68.0737 13.7401 67.9179 10.2421 68.8524 8.83103C69.5922 7.67829 70.7213 7.47954 71.9283 7.81741C73.0575 8.11553 73.7583 8.79128 73.6026 10.103Z" fill="white"/>
<path d="M31.6295 6.7046C33.148 5.79037 34.6081 5.07487 36.3213 5.27362C38.7743 5.57174 40.2344 7.14185 40.4096 9.90444C40.5653 12.19 40.5264 14.4756 40.5069 16.7612C40.5069 17.9935 39.7477 18.4903 38.5991 18.5102C37.431 18.5102 36.7107 17.9537 36.6912 16.7612C36.6328 15.0122 36.6912 13.2434 36.6717 11.4944C36.6523 9.50694 35.9125 8.53308 34.4329 8.51321C32.7392 8.51321 31.5127 9.78519 31.5127 11.5739C31.5127 13.2235 31.5127 14.893 31.5127 16.5426C31.5127 17.8345 30.9092 18.5102 29.6048 18.5102C28.2615 18.5102 27.658 17.914 27.658 16.5029C27.6385 13.5216 27.658 10.5404 27.658 7.55922C27.658 6.66485 27.5801 5.65124 28.6703 5.51212C29.7411 5.35312 31.0649 4.9755 31.6295 6.7046Z" fill="white"/>
<path d="M61.8051 13.104C62.8369 13.104 63.2652 12.6469 63.2263 11.5935C63.1484 8.45332 61.0264 5.8696 57.9894 5.31311C55.2249 4.81624 52.3047 6.56522 51.2534 9.38743C50.1048 12.4283 51.2534 15.7076 54.0763 17.4963C56.1789 18.8279 60.6565 18.4106 62.1361 16.7411C62.6812 16.125 62.6423 15.4691 62.2334 14.8132C61.8441 14.1772 61.2795 14.2369 60.6954 14.4754C59.8583 14.8132 59.0212 15.2306 58.1646 15.4691C56.3735 15.9461 55.0497 15.0716 54.5435 13.0841C56.9965 13.0841 59.4106 13.0643 61.8051 13.104ZM54.4851 10.56C54.5435 9.02969 55.5948 7.8372 56.977 7.71796C58.7292 7.57883 59.9557 8.55269 60.3645 10.56H54.4851Z" fill="white"/>
<path d="M89.8587 13.0844C90.7543 13.0844 91.241 12.7465 91.2604 11.7528C91.3188 8.71191 89.2163 5.98907 86.2766 5.37296C83.3564 4.75684 80.4362 6.40644 79.307 9.30816C78.1195 12.3689 79.2681 15.7078 82.1104 17.4966C84.213 18.8083 88.7101 18.3909 90.1702 16.7214C90.6959 16.1053 90.6569 15.4495 90.2481 14.7936C89.8393 14.1576 89.2747 14.257 88.6906 14.4955C87.8535 14.8333 87.0164 15.2507 86.1598 15.4693C84.3687 15.9265 83.006 15.0321 82.5777 13.0844C85.0696 13.0844 87.4642 13.0844 89.8587 13.0844ZM82.4803 10.5404C82.6945 8.79141 83.8042 7.6983 85.2643 7.71818C86.9969 7.73805 88.1261 8.75166 88.3402 10.5404H82.4803Z" fill="white"/>
<path d="M43.9917 8.51326C42.8626 8.39401 42.0255 8.21514 42.0839 7.08228C42.1423 6.06866 42.8626 5.81029 43.8165 5.77054C43.9528 4.39918 43.5829 2.47133 45.7439 2.63033C47.496 2.74958 47.1845 4.41906 47.3013 5.73079C48.2552 5.92954 49.6764 5.57179 49.6375 7.2214C49.618 8.81138 48.1968 8.23501 47.3208 8.55301C47.3208 10.1231 47.2818 11.6733 47.3402 13.2236C47.3597 13.8596 47.6712 14.4161 48.1774 14.8533C49.1508 15.688 49.2481 16.7613 48.3915 17.755C47.5349 18.7488 46.6005 18.3711 45.8023 17.6954C44.5758 16.6619 44.1085 15.1713 44.0307 13.6409C43.8944 11.9516 43.9917 10.2821 43.9917 8.51326Z" fill="white"/>
<path d="M96.6141 6.66464C97.5291 5.33303 98.8334 5.25353 100.138 5.23366C100.8 5.21378 101.092 5.5914 100.975 6.24727C100.761 7.51925 100.722 8.79124 98.7945 8.63224C97.4707 8.51299 96.5167 9.80485 96.4973 11.1961C96.4778 12.8258 96.4973 14.4357 96.4778 16.0654C96.4583 17.4169 95.6796 18.3311 94.531 18.3311C93.3824 18.3311 92.6426 17.4765 92.6426 16.0654C92.6426 13.4419 92.662 10.8383 92.6426 8.21487C92.6426 7.06214 92.6036 5.9094 93.908 5.39266C95.1734 4.87591 95.8159 5.79015 96.6141 6.66464Z" fill="white"/>
<path d="M21.9149 12.0706C21.9149 10.7191 21.8954 9.36761 21.9149 7.99625C21.9539 6.68452 22.791 5.77028 23.9591 5.8299C25.2245 5.9094 25.9253 6.68452 25.9448 7.93663C25.9837 10.6793 25.9837 13.4221 25.9448 16.1648C25.9253 17.4566 24.9714 18.3709 23.8423 18.2715C22.5963 18.1523 21.9149 17.397 21.8954 16.1052C21.8954 14.7735 21.9149 13.4221 21.9149 12.0706Z" fill="white"/>
<path d="M23.6477 0.284967C24.7963 0.265092 25.7697 1.23895 25.7892 2.39169C25.7892 3.5643 24.8352 4.55804 23.7061 4.57791C22.577 4.59779 21.623 3.60405 21.623 2.41157C21.623 1.2787 22.5575 0.304842 23.6477 0.284967Z" fill="white"/>
</svg>
