<svg width="20" height="22" viewBox="0 0 20 22" fill="none" xmlns="http://www.w3.org/2000/svg">
<path d="M10.0001 11.9912C4.99367 11.9912 0.920654 16.0643 0.920654 21.0709V21.4296H19.0796V21.0709C19.0796 16.0643 15.0065 11.9912 10.0001 11.9912ZM13.3064 13.3927L10.1159 15.7326L6.70506 13.3877C7.71691 12.9519 8.83041 12.7087 10.0001 12.7087C11.1741 12.7087 12.2914 12.9538 13.3064 13.3927ZM1.64577 20.7121C1.77443 17.6779 3.52814 15.0582 6.05623 13.7L6.00386 13.776L10.129 16.6122L14.0052 13.7698L13.961 13.7096C16.4797 15.0704 18.226 17.6848 18.3545 20.7124L1.64577 20.7121Z" fill="#00CC99"/>
<path d="M9.84778 11.0019C12.7238 11.0019 15.0637 8.66199 15.0637 5.78611C15.0637 2.91024 12.7238 0.570312 9.84778 0.570312C6.97196 0.570312 4.63208 2.91024 4.63208 5.78611C4.63208 8.66199 6.97196 11.0019 9.84778 11.0019ZM9.84778 1.28779C11.7596 1.28779 13.3923 2.4886 14.0425 4.17419C13.8199 4.05341 13.5594 3.89915 13.315 3.75399C12.312 3.158 11.6209 2.76961 11.1583 2.81003C10.2591 2.8868 9.71409 3.23166 9.13677 3.59638C8.81774 3.79799 8.48771 4.00678 8.07398 4.17945L7.96038 4.2268C7.07934 4.5951 6.5135 4.83044 5.43061 4.9493C5.8245 2.86766 7.65378 1.28779 9.84778 1.28779ZM5.35504 5.67825C6.6424 5.55437 7.28764 5.28555 8.23732 4.88855L8.35044 4.8412C8.82013 4.64533 9.19226 4.41 9.52038 4.20265C10.0434 3.87213 10.4949 3.58657 11.2196 3.52487C11.4941 3.50359 12.4017 4.046 12.9484 4.37077C13.4934 4.69459 13.9655 4.97393 14.2829 5.06457C14.3211 5.30014 14.3463 5.54002 14.3463 5.78635C14.3463 8.2669 12.3283 10.2847 9.84778 10.2847C7.36728 10.2847 5.34954 8.26666 5.34954 5.78635C5.34954 5.74976 5.35432 5.71436 5.35504 5.67825Z" fill="#00CC99"/>
</svg>
