<svg width="24" height="24" viewBox="0 0 24 24" fill="none" xmlns="http://www.w3.org/2000/svg">
<path d="M21.7284 5.40355C21.6865 5.37012 21.6376 5.34656 21.5854 5.33463C21.5331 5.3227 21.4788 5.3227 21.4266 5.33464L11.9216 7.47326C11.9003 7.47995 11.8796 7.48871 11.8599 7.49939H11.8313L2.56402 5.37504C2.51412 5.36511 2.46267 5.36598 2.41313 5.37758C2.36359 5.38919 2.31712 5.41127 2.27682 5.44233C2.23653 5.4734 2.20335 5.51273 2.17952 5.55769C2.15569 5.60264 2.14176 5.65217 2.13867 5.70296V18.038C2.13888 18.1141 2.16344 18.1882 2.20876 18.2493C2.25408 18.3105 2.31779 18.3555 2.39055 18.3778L11.6436 21.2507C11.7101 21.272 11.7815 21.272 11.848 21.2507C11.8868 21.2709 11.9293 21.2832 11.973 21.2869C12.0166 21.2906 12.0606 21.2855 12.1022 21.2721L21.6072 18.3921C21.6792 18.3705 21.7426 18.3268 21.7883 18.267C21.834 18.2072 21.8596 18.1346 21.8614 18.0594V5.68157C21.8615 5.62823 21.8495 5.57555 21.8265 5.52744C21.8035 5.47932 21.7699 5.43698 21.7284 5.40355ZM2.85154 6.14969L11.6436 8.16712V20.5045L2.85154 17.7766V6.14969ZM21.1486 17.7933L12.3565 20.4523V8.09583L21.1486 6.12593V17.7933Z" fill="#ADADAD"/>
<path d="M13.818 11.6744C13.8517 11.6744 13.8853 11.6696 13.9178 11.6601L19.6492 10.011C19.7363 9.98179 19.8088 9.92007 19.8515 9.83871C19.8942 9.75736 19.9038 9.66266 19.8784 9.57438C19.8529 9.4861 19.7944 9.41105 19.7149 9.3649C19.6355 9.31874 19.5413 9.30504 19.452 9.32666L13.7205 10.9758C13.6384 10.9997 13.5675 11.0525 13.521 11.1243C13.4745 11.1962 13.4555 11.2824 13.4673 11.3672C13.4791 11.452 13.521 11.5297 13.5854 11.5861C13.6498 11.6425 13.7324 11.6738 13.818 11.6744Z" fill="#ADADAD"/>
<path d="M13.818 13.8275C13.8517 13.8275 13.8853 13.8227 13.9178 13.8132L19.6492 12.1641C19.7363 12.1349 19.8088 12.0731 19.8515 11.9918C19.8942 11.9104 19.9038 11.8157 19.8784 11.7275C19.8529 11.6392 19.7944 11.5641 19.7149 11.518C19.6355 11.4718 19.5413 11.4581 19.452 11.4797L13.7205 13.1265C13.6384 13.1504 13.5675 13.2032 13.521 13.275C13.4745 13.3469 13.4555 13.4331 13.4673 13.5179C13.4791 13.6027 13.521 13.6804 13.5854 13.7368C13.6498 13.7932 13.7324 13.8245 13.818 13.8251V13.8275Z" fill="#ADADAD"/>
<path d="M13.818 15.9778C13.8517 15.9778 13.8853 15.973 13.9178 15.9636L19.6492 14.3145C19.7363 14.2853 19.8088 14.2235 19.8515 14.1422C19.8942 14.0608 19.9038 13.9661 19.8784 13.8778C19.8529 13.7896 19.7944 13.7145 19.7149 13.6684C19.6355 13.6222 19.5413 13.6085 19.452 13.6301L13.7205 15.2792C13.6384 15.3032 13.5675 15.3559 13.521 15.4278C13.4745 15.4997 13.4555 15.5859 13.4673 15.6706C13.4791 15.7554 13.521 15.8331 13.5854 15.8895C13.6498 15.9459 13.7324 15.9773 13.818 15.9778Z" fill="#ADADAD"/>
</svg>
