<svg width="20" height="20" viewBox="0 0 20 20" fill="none" xmlns="http://www.w3.org/2000/svg">
<path d="M18.9269 3.36355C18.8696 3.2939 18.7856 3.25383 18.6972 3.25383H4.41L3.82744 1.22469C3.78888 1.09126 3.671 1 3.53716 1H1.30279C1.13545 1 1 1.14077 1 1.31469C1 1.48861 1.13545 1.62939 1.30279 1.62939H3.31149L6.99218 14.4487C6.99259 14.4502 6.9938 14.4514 6.9942 14.4529L7.45141 16.0692C7.16275 16.3673 6.98391 16.7799 6.98391 17.235C6.98391 18.1434 7.69465 18.8825 8.56809 18.8825C9.41348 18.8825 10.104 18.1885 10.1466 17.3193H14.115C14.1148 17.3309 14.1134 17.3422 14.1134 17.3539C14.1134 18.2615 14.8237 19 15.6967 19C16.5698 19 17.2803 18.2615 17.2803 17.3539C17.2803 16.4464 16.5698 15.7079 15.6967 15.7079C15.051 15.7079 14.4953 16.1124 14.2492 16.6899H10.0602C9.98272 16.4602 9.85777 16.249 9.6872 16.0717C9.38825 15.761 8.99099 15.5896 8.5687 15.5896C8.5685 15.5896 8.5683 15.5896 8.5683 15.5896C8.36058 15.5896 8.16256 15.6324 7.98069 15.7083L7.68799 14.6734H17.1094C17.2589 14.6734 17.3861 14.5599 17.4085 14.4063L18.9965 3.61593C19.0099 3.5253 18.9844 3.4332 18.9269 3.36355ZM15.6967 16.3375C16.2359 16.3375 16.6747 16.7936 16.6747 17.3542C16.6747 17.9147 16.2359 18.3708 15.6967 18.3708C15.1576 18.3708 14.7189 17.9147 14.7189 17.3542C14.7189 16.7936 15.1576 16.3375 15.6967 16.3375ZM8.5683 16.2192H8.5685C8.8291 16.2192 9.07415 16.3249 9.25865 16.5169C9.44335 16.7088 9.54489 16.9641 9.54489 17.2354C9.54489 17.7968 9.10665 18.2535 8.56789 18.2535C8.02832 18.2535 7.58928 17.7968 7.58928 17.2354C7.58948 16.675 8.02853 16.2192 8.5683 16.2192ZM16.8492 14.0442H7.50975L6.93728 12.0201C6.93001 11.9945 6.91911 11.9712 6.90659 11.9492L4.59067 3.88321H18.3445L16.8492 14.0442Z" fill="white" stroke="white" stroke-width="0.5"/>
</svg>
