<svg width="30" height="30" viewBox="0 0 30 30" fill="none" xmlns="http://www.w3.org/2000/svg">
<path d="M15 0C6.71581 0 0 6.71581 0 15C0 23.2842 6.71581 30 15 30C23.2842 30 30 23.2842 30 15C30 6.71581 23.2842 0 15 0ZM24.079 11.4556C23.0107 17.4736 17.0417 22.5697 15.2467 23.7335C13.4508 24.8973 11.813 23.2678 11.2193 22.0349C10.5391 20.6293 8.50107 13.0088 7.96753 12.3776C7.43369 11.7464 5.83245 13.0088 5.83245 13.0088L5.05587 11.9904C5.05587 11.9904 8.30761 8.10746 10.7819 7.62167C13.4055 7.10669 13.4018 11.65 14.0327 14.1726C14.6432 16.6125 15.0529 18.0084 15.5859 18.0084C16.1197 18.0084 17.139 16.6478 18.2548 14.562C19.3724 12.474 18.2067 10.6298 16.0224 11.9411C16.8963 6.69969 25.1467 5.43945 24.079 11.4556Z" fill="#00CC99"/>
</svg>
